<svg width="155" height="70" viewBox="0 0 155 70" fill="none" xmlns="http://www.w3.org/2000/svg">
<mask id="mask0_901_46" style="mask-type:alpha" maskUnits="userSpaceOnUse" x="0" y="0" width="155" height="70">
<path d="M17.3927 35.8811C16.8677 35.9071 16.3426 35.9593 15.6134 36.0114C16.8093 36.7414 16.5468 37.0281 15.4383 37.367C14.7091 37.5756 15.4675 37.6799 15.6425 37.7842C14.0673 37.9927 12.4921 38.1491 10.9169 38.3838C9.02088 38.6705 7.32901 39.4005 5.75381 40.339C4.73286 40.9386 3.7119 41.5382 2.45758 41.6165C0.473998 41.7468 -0.54696 40.4694 0.298978 38.853C0.911553 37.6277 2.1367 37.0542 3.44936 36.7414C7.99992 35.6204 12.6672 35.3857 17.3927 35.8811Z" fill="#EABD62"/>
<path d="M108.902 17.4013C107.443 14.4033 105.722 11.9788 103.038 10.2321C101.288 9.08499 99.3339 8.58966 97.1461 8.74608C94.8125 8.92857 93.6457 8.51145 91.8371 6.97332C92.8581 6.89511 93.7915 6.32157 94.9 6.94725C95.4542 7.26009 96.1543 6.92118 96.3585 6.24336C96.5627 5.59161 96.4168 4.992 95.6293 4.75737C94.9 4.52274 94.1416 4.67916 94.0249 5.40912C93.879 6.32157 93.2373 6.39978 92.508 6.47799C91.0203 6.63441 89.6494 6.37371 88.3659 5.61768C88.6284 5.46126 88.8618 5.33091 89.0659 5.20056V5.17449C87.1699 5.33091 85.4488 4.86165 83.6694 4.05348C84.107 3.87099 84.457 3.71457 84.8071 3.61029C86.2073 3.08889 87.2574 1.81146 89.0951 2.25465C89.7077 2.41107 90.0286 1.70718 90.0577 1.15971C90.0577 0.481894 89.6202 0.0908443 88.9201 0.0126343C88.2783 -0.0655756 87.8116 0.221194 87.6074 0.820804C87.4908 1.15971 87.7241 1.57683 87.2282 1.8636C85.2155 3.03675 83.1736 4.05348 80.6066 3.63636C75.4726 2.77605 70.3386 3.08889 65.2922 4.15776C56.4244 6.0348 49.2194 10.2581 43.8812 16.906C41.1101 20.0605 39.3307 23.632 38.0763 27.4383C37.1137 30.3581 36.6762 33.3562 36.6178 36.4063C36.5887 37.6056 37.5513 37.397 38.3097 37.5013C39.389 37.6316 38.9515 36.8756 38.9806 36.4585C39.1265 34.9464 39.1848 33.4344 39.389 31.9223C40.0308 27.2558 42.0143 22.9803 44.698 18.9655C45.4564 17.5317 46.6232 16.3064 47.8192 15.1854C51.2613 11.9006 55.1118 9.08499 59.7207 7.18188C67.3341 4.05348 75.1809 3.01068 83.3777 4.93986C84.5446 5.22663 85.5072 5.74803 86.2073 6.66048C86.5573 7.10367 86.849 7.44258 86.2364 7.96398C85.5655 8.53752 85.8572 9.1632 86.499 9.63246C87.1699 10.1017 87.8116 9.91923 88.2492 9.34569C88.7451 8.69394 88.5701 7.99005 87.8116 7.67721C86.9365 7.31223 86.8198 6.68655 86.4115 5.95659C87.6949 6.26943 88.22 7.0776 88.8326 7.78149C89.2118 8.19861 89.4452 8.72001 89.7077 9.21534C89.8827 9.52818 90.0286 9.84102 90.1744 10.1539C90.2911 10.4928 90.3786 10.8578 90.4078 11.1967C90.4369 11.4313 90.4953 11.9266 90.2036 12.083C89.6202 12.5262 89.7952 13.3605 90.5536 13.7254C91.1954 14.0644 91.8955 13.934 92.333 13.3083C92.7706 12.6566 92.508 11.9527 91.8663 11.7702C91.4579 11.6659 91.1954 11.1445 90.9912 10.8317C90.6995 10.3364 90.4953 9.81495 90.2619 9.26748C90.0577 8.79822 89.766 8.3811 89.5035 7.93791C89.241 7.52079 89.0076 7.12974 88.8034 6.68655C90.2911 7.46865 91.4579 8.09433 92.6247 8.66787C93.2956 9.00678 93.4998 9.37176 93.354 10.1017C92.8289 12.7087 92.8289 15.2896 94.0541 17.7663C95.1042 19.904 96.7086 21.7811 97.3795 24.1013C99.5381 19.6433 99.5089 15.3679 96.4169 11.1706C98.2546 12.2134 99.5672 13.7255 101.784 14.299C104.147 14.9507 106.51 15.8893 108.902 17.4013ZM93.9374 12.0309C95.1625 14.9507 96.4168 17.8706 96.6794 21.025C94.9 18.2356 93.6457 15.3157 93.9374 12.0309ZM97.2336 20.1647C96.621 17.3231 95.6292 14.5597 94.9875 11.692C97.5545 14.0904 98.2546 16.9321 97.2336 20.1647ZM106.072 14.3251C103.389 12.7087 100.501 11.3792 97.7878 9.73674C101.522 9.84102 104.264 11.4052 106.072 14.3251ZM97.3211 10.6753C100.501 11.9527 103.68 13.2562 106.364 15.3157C102.922 14.4293 99.7131 13.178 97.3211 10.6753Z" fill="#EABD62"/>
<path d="M154.775 34.3428C154.308 33.4825 153.346 33.4303 152.383 33.4825C151.216 33.5346 150.254 34.0821 149.35 34.6556C147.162 36.0373 144.682 36.663 142.057 36.9759C138.877 37.3669 135.669 37.0801 132.489 37.2105C132.197 37.3408 131.877 37.3408 131.556 37.3148C131.847 37.2366 132.168 37.1844 132.489 37.2105C130.943 36.9237 129.339 37.1062 127.764 36.9759C120.267 36.3763 112.799 35.7245 105.273 35.5942C100.373 35.4899 95.5013 35.7245 90.8049 37.2366C90.309 37.0541 90.484 36.663 90.4257 36.3502C90.2506 35.2031 90.134 34.03 89.6672 32.935C89.0838 31.5533 88.3546 30.2498 86.546 29.9891C84.6208 29.7284 83.3665 30.7191 82.258 31.9704C81.237 33.1436 80.6245 34.4992 79.9827 35.8549C79.6035 35.0467 80.0411 34.2385 79.9827 33.4303C79.866 32.1268 78.9326 31.2405 77.6199 31.2144C76.1031 31.2144 75.8114 32.1008 75.6655 33.1957C75.3738 35.7766 74.9363 38.3836 75.0529 40.9906C75.1696 43.7019 74.1487 46.1004 72.9235 48.4727C72.5735 49.1506 72.2526 50.1934 71.2608 50.063C70.2982 49.9327 70.2399 48.8638 70.1232 48.1338C69.5106 44.3797 69.3064 40.6257 69.7148 36.8455C69.7731 36.272 70.0357 35.8809 70.4149 35.4638C72.8652 32.8568 74.9654 30.0412 76.7157 27.0432C78.1158 24.6448 79.3118 22.1681 79.3993 19.4047C79.4285 18.049 79.0493 16.7716 77.5616 16.0938C76.1031 15.442 74.8196 16.0156 73.6528 16.7977C71.9901 17.9187 70.7941 19.3786 69.7731 20.9689C66.9144 25.4269 65.631 30.3019 65.3393 35.3856C65.1934 37.9405 65.1642 37.9144 62.4514 38.8268C60.0886 39.635 57.6383 39.8436 55.1588 40.0261C48.158 39.8957 41.2738 38.905 34.4188 37.8362C28.7889 36.9498 23.1591 36.0634 17.4417 35.8549C16.8875 35.6724 16.3041 35.7506 15.7207 35.7766C15.3706 35.7766 14.4955 37.1323 14.6122 37.4973C14.7872 38.0708 15.2539 37.8101 15.6623 37.758C18.4627 37.8101 21.2922 37.8362 24.0925 38.149C28.0305 38.6183 31.9685 39.0875 35.9065 39.5829C35.9648 39.5829 35.994 39.5829 36.0523 39.5829C36.0232 39.5829 36.0232 39.6089 35.994 39.6089C36.6357 39.7132 36.8399 40.4432 36.9274 41.0167C38.1234 49.0463 42.7323 56.7108 49.6165 61.9509C51.5709 63.4369 53.7003 64.7404 55.9756 65.8354C59.2135 67.4256 62.5972 68.7552 66.3019 69.1984C69.8898 69.9544 73.5069 70.2412 77.1824 69.7719C86.5168 69.1723 94.3053 65.6789 100.839 59.7871C103.056 57.7797 104.923 55.5638 106.469 52.9828C105.507 53.1393 105.507 53.1393 105.186 53.5564C100.519 59.6046 93.8678 64.0887 86.0501 66.3307C84.7666 66.6957 83.4831 67.0085 82.1997 67.2692C81.5579 67.3996 80.8578 67.582 80.1869 67.6342C79.4285 67.6863 79.4868 67.4256 79.4868 66.8782C79.5452 65.9918 79.516 65.1315 79.4868 64.2451C79.3993 60.882 79.2826 57.5451 79.3993 54.2081C79.4868 52.0183 79.5452 49.8023 79.691 47.6124C79.7494 48.0556 79.8369 48.4727 79.9535 48.9159C81.2079 50.5323 82.4914 50.819 84.4166 49.9066C85.1167 49.5937 85.7001 49.1506 86.2251 48.6292C88.6171 46.2829 89.6089 43.4412 90.1631 40.391C90.2798 39.7654 90.134 39.0615 90.7465 38.5661C91.0966 38.4619 91.4758 38.3576 91.8258 38.2533C97.9808 36.5587 104.282 36.8977 110.582 37.2887C116.475 37.6537 122.367 38.0969 128.259 38.514C133.364 39.0875 138.469 39.3743 143.603 39.2961C146.082 39.244 148.533 39.0354 150.925 38.4358C152.179 38.1229 153.404 37.6537 154.279 36.7152C154.979 36.0373 155.213 35.177 154.775 34.3428ZM74.2653 21.5946C74.7612 20.7603 75.3447 19.9522 76.1322 19.3004C76.3364 19.144 76.5698 18.9094 76.8907 19.0397C77.2115 19.1701 77.1824 19.4568 77.1824 19.7175C77.1824 20.1086 77.1532 20.4996 77.0657 20.8907C75.9864 25.6354 73.4777 29.7805 70.2107 33.5868C70.9108 29.3634 72.0192 25.3226 74.2653 21.5946ZM74.382 67.3213C69.7148 67.1388 65.0184 66.3828 60.7012 64.7665C55.3339 62.7591 50.6958 59.2918 46.9328 55.3552C44.8034 53.1393 43.5491 50.7669 42.3239 48.1078C41.5072 46.2829 40.8362 44.3797 40.3403 42.4766C40.1945 41.9292 40.0778 41.4078 39.8153 40.8864C39.7861 40.8342 39.7569 40.7821 39.7278 40.7039C40.1945 40.8864 40.7196 40.9906 41.2155 41.0689C43.8991 41.4338 46.5828 41.851 49.2664 41.9552C52.0084 42.0595 54.7796 42.1899 57.5216 41.7206C57.9592 41.6424 58.3967 41.5903 58.6593 41.3296C58.7176 41.3556 58.7759 41.3556 58.8343 41.3817C60.2928 41.4599 61.6055 40.9646 62.9473 40.6257C64.2891 40.2868 64.61 40.4171 64.5808 41.5903C64.5808 42.8938 64.785 44.1973 64.96 45.4747C65.1642 47.2996 65.631 49.0723 66.5644 50.7148C67.3812 52.0965 68.5771 53.0089 70.5024 52.9307C72.7485 52.8264 73.5653 51.3665 74.3237 50.0109C74.2653 50.2455 74.2362 50.6626 74.2362 51.0797C74.1487 56.0591 74.4695 61.0645 75.4905 65.9657C75.753 66.9564 75.5488 67.3735 74.382 67.3213ZM80.0702 44.2233C80.1869 43.3369 80.3036 42.4245 80.4494 41.5381C80.537 40.9646 80.6536 40.391 80.7703 39.8175C80.8578 39.3482 81.237 38.5661 81.1495 38.0969C81.1204 37.9665 81.1204 37.8362 81.0912 37.7058C81.2954 37.4973 81.4121 37.2366 81.5579 36.9759C82.2288 35.8809 82.7247 34.6817 83.6582 33.7171C84.0957 33.2479 84.5916 32.8307 85.1167 33.665C86.196 35.3856 85.5834 38.5401 83.8332 39.6871C82.5205 40.5735 81.4996 41.6685 80.712 42.8938C80.4494 43.363 80.2453 43.7801 80.0702 44.2233ZM83.5415 47.1692C83.279 47.456 83.0164 47.9253 82.5205 47.7688C81.9955 47.6124 82.1705 47.1171 82.2288 46.7521C82.5205 44.5622 83.7165 42.8155 85.8751 41.1992C85.4959 43.5716 85 45.5268 83.5415 47.1692Z" fill="#EABD62"/>
<path d="M100.913 16.9832C100.475 16.54 100.3 16.6704 100.154 17.1397C99.6876 18.6256 99.5126 20.1116 100.096 21.5976C100.563 22.7447 101.175 23.8396 101.35 25.1953C103.363 22.5622 103.101 19.1731 100.913 16.9832ZM100.504 17.8957C100.504 17.8175 100.534 17.7653 100.563 17.5307C101.117 18.5474 101.204 19.5381 101.321 20.5027C101.204 21.2066 101.554 21.9365 101.234 22.6404C101.059 21.0502 100.563 19.486 100.504 17.8957ZM101.554 23.4486C101.642 22.4319 101.671 21.3891 101.496 20.3723C101.525 19.4599 101.234 18.5735 101 17.6611C102.488 18.8603 103.042 21.8323 101.73 24.2568C101.467 23.9961 101.613 23.6832 101.554 23.4486Z" fill="#EABD62"/>
<path d="M101.579 16.0474C100.908 16.0213 100.908 16.2038 101.171 16.647C102.017 17.9765 103.067 19.1497 104.671 19.8275C105.897 20.3489 107.209 20.7139 108.405 21.5742C107.734 18.4458 104.876 16.2038 101.579 16.0474ZM102.017 16.9337C101.959 16.8816 101.929 16.8295 101.784 16.647C102.98 17.0119 103.825 17.6637 104.671 18.2633C105.138 18.8368 105.984 19.1236 106.276 19.8275C104.905 18.8368 103.33 18.0287 102.017 16.9337ZM107.151 20.2186C106.392 19.4365 105.605 18.6804 104.671 18.0808C103.971 17.403 103.067 16.9859 102.163 16.4905C104.176 16.3863 106.918 18.133 107.88 20.6878C107.53 20.6617 107.413 20.3489 107.151 20.2186Z" fill="#EABD62"/>
<path d="M104.383 22.8268C104.091 22.4096 103.945 22.5139 103.741 22.8789C103.187 24.026 102.837 25.1991 103.129 26.4505C103.333 27.4151 103.712 28.3536 103.683 29.4746C105.637 27.5715 105.871 24.8081 104.383 22.8268ZM103.945 23.5046C103.945 23.4524 103.975 23.4003 104.033 23.2178C104.354 24.1042 104.296 24.8863 104.266 25.6945C104.091 26.2419 104.266 26.8676 103.916 27.389C103.975 26.1116 103.77 24.8081 103.945 23.5046ZM104.062 28.0929C104.266 27.2847 104.412 26.4505 104.412 25.6162C104.558 24.8863 104.441 24.1563 104.354 23.4003C105.404 24.5213 105.462 26.9719 104.091 28.7707C103.916 28.51 104.091 28.3015 104.062 28.0929Z" fill="#EABD62"/>
<path d="M104.967 22.1739C104.413 22.1218 104.413 22.2782 104.588 22.6171C105.171 23.7381 105.959 24.7548 107.184 25.3805C108.146 25.8758 109.167 26.2408 110.101 26.9968C109.78 24.468 107.592 22.4867 104.967 22.1739ZM105.259 22.9299C105.229 22.8778 105.2 22.8256 105.084 22.6953C106.017 23.0603 106.659 23.6338 107.3 24.1813C107.651 24.6766 108.292 24.9634 108.496 25.5369C107.446 24.6245 106.221 23.8945 105.259 22.9299ZM109.197 25.8758C108.642 25.198 108.059 24.5463 107.33 23.9988C106.805 23.4252 106.105 23.0081 105.404 22.5649C107.038 22.591 109.138 24.1552 109.751 26.293C109.459 26.2408 109.372 25.9801 109.197 25.8758Z" fill="#EABD62"/>
<path d="M107.262 27.8317C107.116 27.545 107.029 27.5971 106.883 27.8057C106.416 28.4574 106.066 29.1613 106.095 29.9695C106.125 30.5951 106.241 31.1948 106.095 31.8986C107.496 30.8819 107.933 29.1874 107.262 27.8317ZM106.912 28.2228C106.912 28.1967 106.941 28.1706 107 28.0664C107.087 28.6399 106.971 29.1352 106.854 29.6045C106.679 29.9434 106.737 30.3344 106.445 30.6212C106.621 29.8391 106.65 29.0049 106.912 28.2228ZM106.475 31.0644C106.679 30.5691 106.883 30.0737 106.971 29.5523C107.146 29.1092 107.146 28.6399 107.175 28.1706C107.7 28.9527 107.466 30.4648 106.416 31.4555C106.329 31.3251 106.445 31.1948 106.475 31.0644Z" fill="#EABD62"/>
<path d="M107.475 27.6483C107.125 27.5961 107.125 27.6743 107.213 27.909C107.534 28.6389 107.942 29.2907 108.7 29.7599C109.284 30.0988 109.896 30.3856 110.421 30.907C110.363 29.2907 109.109 27.9611 107.475 27.6483ZM107.621 28.1436C107.592 28.1175 107.592 28.0914 107.534 27.9872C108.117 28.2479 108.467 28.6389 108.846 29.0039C109.021 29.3167 109.43 29.5253 109.517 29.9163C108.905 29.2907 108.175 28.7693 107.621 28.1436ZM109.896 30.1249C109.575 29.6817 109.255 29.2385 108.846 28.8735C108.555 28.4825 108.146 28.1957 107.738 27.909C108.759 28.0132 109.984 29.0821 110.246 30.4117C110.042 30.3856 110.013 30.2292 109.896 30.1249Z" fill="#EABD62"/>
<path d="M108.548 30.6717C108.344 30.4631 108.257 30.5153 108.198 30.7499C107.965 31.4538 107.848 32.1577 108.111 32.8616C108.315 33.409 108.577 33.9304 108.665 34.5822C109.598 33.3569 109.54 31.7405 108.548 30.6717ZM108.315 31.0888C108.315 31.0627 108.315 31.0106 108.344 30.9324C108.577 31.4277 108.607 31.897 108.665 32.3402C108.607 32.6791 108.753 33.018 108.577 33.3569C108.548 32.6009 108.344 31.8448 108.315 31.0888ZM108.753 33.7479C108.811 33.2526 108.84 32.7833 108.782 32.288C108.811 31.8448 108.694 31.4277 108.577 31.0106C109.278 31.6102 109.482 33.018 108.811 34.139C108.694 34.0086 108.782 33.8783 108.753 33.7479Z" fill="#EABD62"/>
<path d="M94.2053 9.40039C94.0303 10 104.444 20.3759 108.761 31.8467C108.761 31.8467 103.89 15.4747 94.2053 9.40039Z" fill="#EABD62"/>
<path d="M109.331 48.0088L109.272 48.061C108.951 48.0349 108.426 48.0349 107.726 48.0349C106.997 48.0349 106.501 48.0349 106.18 48.061L106.122 48.0088V47.696L106.18 47.6439C106.53 47.6178 106.705 47.6178 106.764 47.5917C106.851 47.5656 106.91 47.5135 106.939 47.4353C106.968 47.2267 106.997 46.7575 106.997 46.0536V44.9586C106.822 44.9326 106.297 44.9326 105.364 44.9326C104.518 44.9326 103.963 44.9326 103.701 44.9586V46.0536C103.701 46.7575 103.73 47.2267 103.759 47.4353C103.788 47.5135 103.847 47.5656 103.934 47.5917C103.993 47.5917 104.168 47.6178 104.518 47.6439L104.576 47.696V48.0088L104.518 48.061C104.197 48.0349 103.672 48.0349 102.972 48.0349C102.242 48.0349 101.746 48.0349 101.426 48.061L101.367 48.0088V47.696L101.426 47.6439C101.776 47.6178 101.951 47.6178 102.009 47.5917C102.096 47.5656 102.155 47.5135 102.184 47.4353C102.213 47.2267 102.242 46.7575 102.242 46.0536V43.6812C102.242 42.9773 102.213 42.5081 102.184 42.2995C102.155 42.2213 102.096 42.1692 102.009 42.1431C101.951 42.1431 101.776 42.117 101.426 42.0909L101.367 42.0388V41.726L101.426 41.6738C101.746 41.6999 102.271 41.6999 102.972 41.6999C103.701 41.6999 104.226 41.6999 104.518 41.6738L104.576 41.726V42.0388L104.518 42.0909C104.168 42.117 103.993 42.117 103.934 42.1431C103.847 42.1692 103.788 42.2213 103.759 42.2995C103.73 42.5081 103.701 42.9773 103.701 43.6812V44.4112C104.051 44.4372 104.547 44.4372 105.159 44.4372C106.151 44.4372 106.735 44.4372 106.997 44.4112V43.6812C106.997 42.9773 106.968 42.5081 106.939 42.2995C106.91 42.2213 106.851 42.1692 106.764 42.1431C106.705 42.1431 106.53 42.117 106.18 42.0909L106.122 42.0388V41.726L106.18 41.6738C106.501 41.6999 107.026 41.6999 107.726 41.6999C108.456 41.6999 108.981 41.6999 109.272 41.6738L109.331 41.726V42.0388L109.272 42.0909C108.922 42.117 108.718 42.117 108.689 42.1431C108.601 42.1692 108.543 42.2213 108.514 42.2995C108.485 42.5081 108.456 42.9773 108.456 43.6812V46.0536C108.456 46.7575 108.485 47.2267 108.514 47.4353C108.543 47.5135 108.601 47.5656 108.689 47.5917C108.747 47.5917 108.922 47.6178 109.272 47.6439L109.331 47.696V48.0088Z" fill="#EABD62"/>
<path d="M116.982 46.5228C116.894 46.966 116.865 47.4614 116.865 48.0088L116.807 48.061L113.161 48.0349C112.548 48.0349 112.111 48.0349 111.877 48.061L111.819 48.0088V47.8785L111.848 47.8263C112.111 47.696 112.227 47.5917 112.256 47.5656C112.286 47.5135 112.315 47.3049 112.315 46.966L112.344 45.9493V43.6812C112.344 42.9773 112.315 42.5081 112.286 42.2995C112.256 42.2213 112.198 42.1692 112.11 42.1431C112.052 42.1431 111.877 42.117 111.527 42.0909L111.469 42.0388V41.726L111.527 41.6738C111.877 41.6999 112.402 41.6999 113.102 41.6999C113.744 41.6999 114.94 41.6999 116.69 41.6738L116.749 41.6999L116.69 42.1952C116.661 42.3516 116.661 42.482 116.632 42.6123L116.603 43.0295L116.544 43.0816H116.253L116.194 43.0295C116.194 42.6124 116.165 42.3777 116.107 42.3256C116.078 42.2734 115.903 42.2474 115.553 42.2213C115.232 42.1952 114.94 42.1952 114.707 42.1952C114.415 42.1952 114.123 42.1952 113.832 42.2213C113.802 42.5341 113.773 42.9773 113.773 43.5248V44.4633C114.036 44.4894 114.24 44.4894 114.415 44.4894H115.086C115.407 44.4894 115.582 44.4633 115.611 44.4112C115.669 44.359 115.698 44.1505 115.728 43.8116L115.786 43.7594H116.107L116.165 43.8116C116.165 44.1505 116.136 44.4633 116.136 44.724C116.136 45.0369 116.136 45.3497 116.165 45.7147L116.107 45.7668H115.757L115.698 45.7147C115.698 45.3758 115.669 45.1672 115.611 45.089C115.553 45.0369 115.407 44.9847 115.115 44.9586C114.911 44.9326 114.707 44.9326 114.473 44.9326C114.24 44.9326 114.007 44.9326 113.802 44.9586V46.3404C113.802 46.7314 113.802 47.1225 113.832 47.4874H114.502C115.494 47.4874 116.078 47.4614 116.311 47.3832C116.34 47.3832 116.369 47.3571 116.399 47.331C116.428 47.2789 116.457 47.2007 116.486 47.0703L116.603 46.5228L116.661 46.4707H116.982V46.5228Z" fill="#EABD62"/>
<path d="M126.052 48.0076L125.994 48.0597C125.964 48.0597 125.906 48.0597 125.789 48.0597C125.323 48.0336 125.031 48.0336 124.943 48.0336C124.768 48.0336 124.506 48.0336 124.127 48.0597C124.127 47.9815 124.039 47.8772 123.922 47.6947L122.668 45.8438L122.114 45.0877C122.056 44.9834 121.939 44.9052 121.822 44.801L121.881 44.6445C121.968 44.6445 122.026 44.6445 122.056 44.6445C122.376 44.6445 122.639 44.5924 122.843 44.5142C123.018 44.436 123.164 44.2796 123.31 44.071C123.456 43.8624 123.514 43.6017 123.514 43.315C123.514 42.8196 123.31 42.4547 122.872 42.2982C122.668 42.22 122.376 42.1679 121.997 42.1679C121.822 42.1679 121.676 42.1679 121.501 42.194C121.472 42.4807 121.443 42.9761 121.443 43.706V46.0523C121.443 46.7562 121.472 47.2255 121.501 47.434C121.531 47.5122 121.589 47.5644 121.676 47.5904C121.735 47.5904 121.91 47.6165 122.26 47.6426L122.318 47.6947V48.0076L122.26 48.0597C121.939 48.0336 121.414 48.0336 120.714 48.0336C119.984 48.0336 119.489 48.0336 119.168 48.0597L119.109 48.0076V47.6947L119.168 47.6426C119.518 47.6165 119.693 47.6165 119.751 47.5904C119.839 47.5644 119.897 47.5122 119.926 47.434C119.955 47.2255 119.984 46.7562 119.984 46.0523V43.6799C119.984 42.9761 119.955 42.5068 119.926 42.2982C119.897 42.22 119.839 42.1679 119.751 42.1418C119.693 42.1418 119.518 42.1157 119.168 42.0897L119.109 42.0375V41.7247L119.168 41.6726C119.489 41.6986 120.014 41.6986 120.714 41.6986C121.122 41.6986 121.443 41.6986 121.706 41.6726C122.201 41.6465 122.581 41.6465 122.843 41.6465C123.427 41.6465 123.835 41.6986 124.127 41.7768C124.506 41.9072 124.739 42.1157 124.856 42.4025C124.914 42.5589 124.943 42.7154 124.943 42.9239C124.943 43.7321 124.418 44.3056 123.397 44.6706C123.572 44.9313 123.747 45.1659 123.922 45.4266L124.71 46.4955C125.177 47.1212 125.468 47.4862 125.614 47.5644C125.702 47.6165 125.789 47.6426 125.935 47.6426L125.994 47.6947V48.0076H126.052Z" fill="#EABD62"/>
<path d="M133.918 46.0002C133.918 46.7562 133.51 47.3297 132.693 47.7469C132.284 47.9554 131.759 48.0597 131.147 48.0597C130.943 48.0597 130.768 48.0597 130.651 48.0597L129.455 48.0336C129.017 48.0336 128.696 48.0336 128.463 48.0597L128.405 48.0076V47.8772L128.434 47.8251C128.696 47.6947 128.813 47.5904 128.842 47.5644C128.871 47.5122 128.901 47.3037 128.901 46.9648L128.93 45.948V43.6799C128.93 42.9761 128.901 42.5068 128.871 42.2982C128.842 42.22 128.784 42.1679 128.696 42.1418C128.638 42.1418 128.463 42.1157 128.113 42.0897L128.055 42.0375V41.7247L128.113 41.6726C128.405 41.6986 128.93 41.6986 129.659 41.6986C130.126 41.6986 130.534 41.6986 130.913 41.6726C131.205 41.6726 131.468 41.6465 131.672 41.6465C132.605 41.6465 133.218 41.829 133.51 42.22C133.655 42.4286 133.743 42.6632 133.743 42.9239C133.743 43.341 133.568 43.706 133.189 43.9928C133.014 44.1231 132.839 44.2274 132.634 44.3056C132.401 44.3838 132.168 44.436 131.905 44.4881C133.218 44.5403 133.918 45.0617 133.918 46.0002ZM132.139 43.1585C132.139 42.5068 131.759 42.1679 130.972 42.1679C130.709 42.1679 130.505 42.1679 130.33 42.194C130.33 42.5068 130.301 42.7936 130.301 43.0543V44.3056C130.388 44.3056 130.534 44.3056 130.768 44.3056C131.38 44.3056 131.759 44.1231 131.963 43.7842C132.08 43.6017 132.139 43.3932 132.139 43.1585ZM132.372 46.1305C132.372 45.2441 131.847 44.7749 130.797 44.7749C130.651 44.7749 130.505 44.7749 130.33 44.801V46.8866C130.33 47.1212 130.33 47.3297 130.359 47.5383C130.505 47.5644 130.68 47.5644 130.943 47.5644C131.409 47.5644 131.788 47.434 132.022 47.1733C132.255 46.9387 132.372 46.5737 132.372 46.1305Z" fill="#EABD62"/>
<path d="M143.756 48.0076L143.698 48.0597C142.939 48.0336 142.502 48.0336 142.356 48.0336C141.743 48.0336 141.16 48.0336 140.635 48.0597L140.577 48.0076V47.7208L140.635 47.6687L141.072 47.6426C141.247 47.6426 141.335 47.5644 141.335 47.4601C141.335 47.408 141.277 47.2515 141.189 47.043L140.781 46.1045C140.314 46.1045 139.847 46.1045 139.351 46.1045C139.089 46.1045 138.71 46.1045 138.185 46.1045L137.951 46.6519C137.776 47.069 137.689 47.3297 137.689 47.434C137.689 47.5383 137.776 47.6165 137.922 47.6426C138.01 47.6426 138.185 47.6687 138.447 47.6687L138.505 47.7208V48.0076L138.447 48.0597C137.835 48.0336 137.426 48.0336 137.251 48.0336C137.105 48.0336 136.784 48.0336 136.23 48.0597L136.172 48.0076V47.7208L136.23 47.6687C136.58 47.6426 136.784 47.5904 136.872 47.4862C136.959 47.3819 137.251 46.7562 137.747 45.6091L139.06 42.6632C139.147 42.4286 139.293 42.0897 139.497 41.6465H140.197L142.852 47.2515C142.969 47.4601 143.056 47.5904 143.144 47.6165C143.26 47.6426 143.406 47.6687 143.61 47.6687L143.669 47.7208V48.0076H143.756ZM140.547 45.5831L139.468 43.2368L138.447 45.5831C138.71 45.5831 139.089 45.6091 139.526 45.6091C139.935 45.6091 140.285 45.6091 140.547 45.5831Z" fill="#EABD62"/>
<path d="M151.333 46.5228C151.246 46.966 151.217 47.4614 151.217 48.0088L151.158 48.061L147.512 48.0349C146.9 48.0349 146.462 48.0349 146.229 48.061L146.17 48.0088V47.8785L146.2 47.8263C146.462 47.696 146.579 47.5917 146.608 47.5656C146.637 47.5135 146.666 47.3049 146.666 46.966L146.695 45.9493V43.6812C146.695 42.9773 146.666 42.5081 146.637 42.2995C146.608 42.2213 146.55 42.1692 146.462 42.1431C146.404 42.1431 146.229 42.117 145.879 42.0909L145.82 42.0388V41.726L145.879 41.6738C146.229 41.6999 146.725 41.6999 147.396 41.6999C148.096 41.6999 148.621 41.6999 148.971 41.6738L149.029 41.726V42.0388L148.971 42.0909C148.621 42.117 148.446 42.117 148.387 42.1431C148.3 42.1692 148.241 42.2213 148.212 42.2995C148.183 42.5081 148.154 42.9773 148.154 43.6812V46.3664C148.154 46.7575 148.154 47.1485 148.183 47.5135H148.854C149.846 47.5135 150.429 47.4874 150.663 47.4092C150.692 47.4092 150.721 47.3832 150.75 47.3571C150.779 47.3049 150.808 47.2267 150.838 47.0964L150.954 46.5489L151.013 46.4968H151.333V46.5228Z" fill="#EABD62"/>
</mask>
<g mask="url(#mask0_901_46)">
<rect x="-18.6016" y="-6.22266" width="221.661" height="110.447" fill="black"/>
</g>
</svg>
